<svg xmlns="http://www.w3.org/2000/svg" xmlns:xlink="http://www.w3.org/1999/xlink" width="500" zoomAndPan="magnify" viewBox="0 0 375 374.999991" height="500" preserveAspectRatio="xMidYMid meet" version="1.0"><defs><clipPath id="dde8428f07"><path d="M 0.105469 0.0195312 L 374.355469 0.0195312 L 374.355469 374.269531 L 0.105469 374.269531 Z M 0.105469 0.0195312 " clip-rule="nonzero"/></clipPath><clipPath id="15e579686c"><path d="M 66.757812 83.597656 L 307.503906 83.597656 L 307.503906 290.527344 L 66.757812 290.527344 Z M 66.757812 83.597656 " clip-rule="nonzero"/></clipPath><clipPath id="d6d46594e1"><path d="M 307.546875 187.0625 L 247.351562 290.527344 L 126.957031 290.527344 L 66.757812 187.0625 L 126.957031 83.597656 L 247.351562 83.597656 Z M 307.546875 187.0625 " clip-rule="nonzero"/></clipPath><clipPath id="c619fafac1"><path d="M 83.6875 66.667969 L 290.617188 66.667969 L 290.617188 307.414062 L 83.6875 307.414062 Z M 83.6875 66.667969 " clip-rule="nonzero"/></clipPath><clipPath id="422b614591"><path d="M 187.152344 307.460938 L 83.6875 247.261719 L 83.6875 126.867188 L 187.152344 66.667969 L 290.617188 126.867188 L 290.617188 247.261719 Z M 187.152344 307.460938 " clip-rule="nonzero"/></clipPath><clipPath id="38597b5ad5"><path d="M 113.609375 122.070312 L 260.609375 122.070312 L 260.609375 239 L 113.609375 239 Z M 113.609375 122.070312 " clip-rule="nonzero"/></clipPath></defs><path fill="#ffffff" d="M 201.5625 338.542969 L 190.699219 327.679688 C 190.199219 327.179688 189.4375 327.027344 188.785156 327.296875 C 188.125 327.570312 187.695312 328.207031 187.695312 328.921875 L 187.695312 357.433594 L 179.875 349.621094 C 179.191406 348.9375 178.074219 348.9375 177.390625 349.621094 C 176.703125 350.308594 176.703125 351.421875 177.390625 352.109375 L 188.210938 362.925781 C 188.546875 363.261719 188.996094 363.441406 189.457031 363.441406 C 189.683594 363.441406 189.914062 363.394531 190.132812 363.308594 C 190.792969 363.039062 191.21875 362.398438 191.21875 361.683594 L 191.21875 333.171875 L 199.078125 341.03125 C 199.765625 341.714844 200.882812 341.714844 201.566406 341.03125 C 202.246094 340.34375 202.246094 339.230469 201.5625 338.542969 Z M 201.5625 338.542969 " fill-opacity="1" fill-rule="nonzero"/><path fill="#ffffff" d="M 160.679688 325.246094 C 160.113281 324.808594 159.347656 324.765625 158.726562 325.121094 L 147.015625 331.890625 L 139.628906 319.179688 C 139.140625 318.335938 138.066406 318.050781 137.226562 318.542969 C 136.382812 319.03125 136.105469 320.105469 136.585938 320.941406 L 144.855469 335.171875 C 145.34375 336.007812 146.414062 336.292969 147.257812 335.8125 L 156.8125 330.289062 L 150.53125 353.726562 L 144.890625 343.972656 C 144.65625 343.570312 144.273438 343.273438 143.820312 343.15625 C 143.371094 343.035156 142.890625 343.097656 142.488281 343.332031 L 128.085938 351.660156 C 127.25 352.148438 126.960938 353.226562 127.449219 354.0625 C 127.691406 354.484375 128.082031 354.761719 128.515625 354.882812 C 128.953125 355 129.433594 354.953125 129.855469 354.703125 L 142.722656 347.261719 L 149.605469 359.164062 C 149.964844 359.777344 150.65625 360.121094 151.363281 360.027344 C 152.070312 359.9375 152.648438 359.429688 152.828125 358.742188 L 161.308594 327.101562 C 161.492188 326.40625 161.242188 325.675781 160.679688 325.246094 Z M 160.679688 325.246094 " fill-opacity="1" fill-rule="nonzero"/><path fill="#ffffff" d="M 88.289062 335.28125 C 88.539062 336.21875 89.503906 336.78125 90.441406 336.53125 L 101.578125 333.546875 L 98.148438 339.492188 C 97.660156 340.335938 97.949219 341.40625 98.792969 341.894531 C 99.640625 342.382812 100.714844 342.09375 101.195312 341.25 L 104.59375 335.355469 L 107.558594 346.402344 C 107.808594 347.339844 108.773438 347.898438 109.714844 347.648438 C 110.652344 347.398438 111.214844 346.433594 110.957031 345.492188 L 107.082031 331.046875 L 119.621094 309.328125 C 120.109375 308.484375 119.820312 307.414062 118.972656 306.925781 C 118.136719 306.445312 117.0625 306.730469 116.574219 307.574219 L 104.066406 329.238281 L 89.53125 333.132812 C 88.597656 333.382812 88.039062 334.34375 88.289062 335.28125 Z M 88.289062 335.28125 " fill-opacity="1" fill-rule="nonzero"/><path fill="#ffffff" d="M 84.457031 307.777344 C 84.710938 307.132812 84.554688 306.390625 84.058594 305.898438 L 70.453125 292.289062 L 91.699219 292.019531 C 92.671875 292.007812 93.449219 291.207031 93.4375 290.238281 C 93.421875 289.269531 92.625 288.488281 91.65625 288.503906 L 66.234375 288.824219 C 65.527344 288.832031 64.894531 289.269531 64.625 289.921875 C 64.359375 290.574219 64.511719 291.328125 65.007812 291.828125 L 78.734375 305.554688 L 57.542969 306.464844 C 56.574219 306.511719 55.820312 307.328125 55.863281 308.300781 C 55.882812 308.761719 56.074219 309.164062 56.375 309.46875 C 56.714844 309.804688 57.179688 310 57.695312 309.980469 L 82.878906 308.894531 C 83.589844 308.867188 84.199219 308.429688 84.457031 307.777344 Z M 84.457031 307.777344 " fill-opacity="1" fill-rule="nonzero"/><path fill="#ffffff" d="M 35.683594 258.953125 L 31.75 273.621094 C 31.570312 274.097656 31.589844 274.644531 31.859375 275.125 C 32.113281 275.5625 32.515625 275.84375 32.96875 275.949219 L 47.785156 279.910156 C 48.722656 280.160156 49.683594 279.605469 49.9375 278.664062 C 50.0625 278.195312 49.988281 277.71875 49.757812 277.332031 C 49.535156 276.941406 49.15625 276.636719 48.6875 276.511719 L 37.945312 273.636719 L 65.886719 257.511719 C 66.730469 257.03125 67.015625 255.949219 66.53125 255.113281 C 66.042969 254.265625 64.96875 253.984375 64.128906 254.464844 L 36.210938 270.585938 L 39.085938 259.863281 C 39.335938 258.925781 38.785156 257.957031 37.847656 257.703125 C 36.902344 257.453125 35.9375 258.015625 35.683594 258.953125 Z M 35.683594 258.953125 " fill-opacity="1" fill-rule="nonzero"/><path fill="#ffffff" d="M 36.257812 219.617188 L 33.582031 223.96875 L 29.394531 221.496094 C 28.5625 221.007812 27.492188 221.277344 26.992188 222.101562 L 18.484375 236.210938 C 18.117188 236.824219 18.15625 237.605469 18.582031 238.179688 C 19.019531 238.753906 19.753906 239.011719 20.445312 238.820312 L 52.207031 230.3125 C 52.890625 230.128906 53.398438 229.546875 53.492188 228.839844 C 53.527344 228.609375 53.507812 228.378906 53.445312 228.15625 C 53.328125 227.710938 53.039062 227.324219 52.628906 227.085938 L 38.625 219 C 37.808594 218.539062 36.75 218.804688 36.257812 219.617188 Z M 23.757812 234.296875 L 29.109375 225.414062 L 31.75 226.972656 L 27.953125 233.167969 Z M 47.195312 228.015625 L 32.882812 231.855469 L 38.359375 222.921875 Z M 47.195312 228.015625 " fill-opacity="1" fill-rule="nonzero"/><path fill="#ffffff" d="M 48.476562 198.015625 C 48.476562 197.046875 47.6875 196.261719 46.714844 196.261719 L 15.898438 196.261719 L 23.96875 187.855469 C 24.621094 187.175781 24.621094 186.097656 23.96875 185.417969 L 15.863281 176.980469 L 46.65625 176.980469 C 47.625 176.980469 48.410156 176.1875 48.410156 175.21875 C 48.410156 174.246094 47.625 173.460938 46.65625 173.460938 L 11.734375 173.460938 C 11.027344 173.460938 10.394531 173.882812 10.117188 174.53125 C 10.023438 174.75 9.980469 174.984375 9.980469 175.21875 C 9.980469 175.664062 10.152344 176.101562 10.46875 176.4375 L 20.261719 186.632812 L 10.492188 196.800781 C 10.003906 197.3125 9.867188 198.0625 10.144531 198.710938 C 10.421875 199.355469 11.054688 199.777344 11.761719 199.777344 L 46.707031 199.777344 C 47.6875 199.777344 48.476562 198.992188 48.476562 198.015625 Z M 48.476562 198.015625 " fill-opacity="1" fill-rule="nonzero"/><path fill="#ffffff" d="M 42.519531 129.011719 L 21.710938 123.433594 C 21.03125 123.25 20.304688 123.496094 19.871094 124.046875 C 19.433594 124.601562 19.375 125.363281 19.710938 125.980469 L 26.515625 138.382812 L 14.472656 145.660156 C 14.394531 145.714844 14.3125 145.765625 14.242188 145.824219 C 14.222656 145.84375 14.203125 145.863281 14.183594 145.882812 C 14.128906 145.9375 14.078125 145.988281 14.03125 146.050781 C 14.003906 146.074219 13.984375 146.109375 13.964844 146.136719 C 13.917969 146.195312 13.878906 146.261719 13.847656 146.328125 C 13.832031 146.351562 13.8125 146.371094 13.800781 146.398438 C 13.753906 146.492188 13.71875 146.585938 13.6875 146.683594 C 13.6875 146.691406 13.679688 146.703125 13.675781 146.710938 C 13.667969 146.730469 13.667969 146.75 13.667969 146.769531 C 13.648438 146.847656 13.632812 146.921875 13.628906 147 C 13.621094 147.03125 13.621094 147.066406 13.621094 147.097656 C 13.621094 147.183594 13.621094 147.277344 13.632812 147.363281 C 13.632812 147.382812 13.632812 147.402344 13.640625 147.414062 C 13.65625 147.515625 13.679688 147.605469 13.714844 147.699219 C 13.71875 147.730469 13.734375 147.757812 13.746094 147.785156 C 13.773438 147.859375 13.804688 147.921875 13.839844 147.988281 C 13.851562 148.015625 13.867188 148.042969 13.886719 148.070312 C 13.929688 148.140625 13.984375 148.214844 14.039062 148.28125 C 14.042969 148.292969 14.058594 148.304688 14.0625 148.3125 C 14.128906 148.386719 14.203125 148.457031 14.28125 148.519531 C 14.308594 148.539062 14.328125 148.550781 14.355469 148.570312 C 14.414062 148.617188 14.480469 148.65625 14.546875 148.6875 C 14.570312 148.703125 14.605469 148.722656 14.632812 148.734375 C 14.722656 148.78125 14.824219 148.820312 14.929688 148.847656 L 48.6875 157.894531 C 49.625 158.144531 50.589844 157.589844 50.839844 156.648438 C 51.089844 155.710938 50.535156 154.746094 49.597656 154.488281 L 37.621094 151.28125 L 31.226562 139.636719 L 42.722656 132.691406 L 54.527344 135.859375 C 55.464844 136.113281 56.429688 135.558594 56.6875 134.621094 C 56.9375 133.683594 56.382812 132.71875 55.4375 132.46875 L 43.429688 129.25 C 43.152344 129.089844 42.835938 129.003906 42.519531 129.011719 Z M 32.917969 150.042969 L 19.832031 146.539062 L 28.21875 141.476562 Z M 29.53125 136.558594 L 24.78125 127.894531 L 38.003906 131.4375 Z M 29.53125 136.558594 " fill-opacity="1" fill-rule="nonzero"/><path fill="#ffffff" d="M 67.589844 113.542969 C 67.101562 114.386719 66.023438 114.671875 65.1875 114.191406 L 35.109375 96.820312 C 34.488281 96.464844 34.152344 95.773438 34.242188 95.066406 C 34.335938 94.359375 34.84375 93.777344 35.535156 93.59375 L 50.378906 89.621094 C 51.316406 89.371094 52.277344 89.925781 52.527344 90.867188 C 52.78125 91.804688 52.226562 92.769531 51.289062 93.019531 L 40.550781 95.898438 L 66.949219 111.140625 C 67.785156 111.628906 68.078125 112.703125 67.589844 113.542969 Z M 67.589844 113.542969 " fill-opacity="1" fill-rule="nonzero"/><path fill="#ffffff" d="M 83.1875 80.371094 L 83.1875 69.03125 C 83.1875 68.0625 82.402344 67.269531 81.425781 67.269531 L 69.542969 67.269531 L 69.542969 55.941406 C 69.542969 54.96875 68.75 54.179688 67.78125 54.183594 C 66.808594 54.183594 66.023438 54.96875 66.023438 55.941406 L 66.023438 67.277344 L 54.6875 67.277344 C 53.71875 67.277344 52.925781 68.0625 52.925781 69.03125 C 52.925781 70.003906 53.71875 70.789062 54.6875 70.789062 L 66.023438 70.789062 L 66.023438 82.125 C 66.023438 83.09375 66.816406 83.886719 67.78125 83.878906 L 79.671875 83.878906 L 79.671875 95.21875 C 79.671875 96.1875 80.457031 96.980469 81.425781 96.980469 C 81.914062 96.980469 82.351562 96.78125 82.671875 96.464844 C 82.988281 96.148438 83.1875 95.707031 83.1875 95.222656 L 83.1875 83.886719 L 94.523438 83.886719 C 95.007812 83.886719 95.449219 83.6875 95.765625 83.371094 C 96.082031 83.054688 96.28125 82.613281 96.28125 82.125 C 96.28125 81.15625 95.496094 80.371094 94.519531 80.371094 Z M 69.542969 80.371094 L 69.542969 70.789062 L 79.671875 70.789062 L 79.671875 80.371094 Z M 69.542969 80.371094 " fill-opacity="1" fill-rule="nonzero"/><path fill="#ffffff" d="M 171.304688 17.96875 C 170.703125 17.796875 170.0625 17.964844 169.617188 18.390625 L 152.886719 34.425781 L 130.378906 28.902344 C 129.777344 28.757812 129.136719 28.9375 128.703125 29.378906 C 128.265625 29.820312 128.101562 30.460938 128.257812 31.070312 L 134.277344 53.53125 C 134.4375 54.132812 134.90625 54.601562 135.5 54.773438 C 136.097656 54.9375 136.738281 54.777344 137.1875 54.351562 L 153.917969 38.3125 L 176.425781 43.835938 C 176.714844 43.910156 177.019531 43.902344 177.304688 43.824219 C 177.601562 43.746094 177.882812 43.585938 178.101562 43.355469 C 178.539062 42.914062 178.703125 42.273438 178.542969 41.671875 L 172.527344 19.210938 C 172.367188 18.601562 171.898438 18.132812 171.304688 17.96875 Z M 136.898438 49.75 L 132.417969 33.035156 L 149.871094 37.316406 Z M 174.378906 39.707031 L 156.933594 35.425781 L 169.90625 22.992188 Z M 174.378906 39.707031 " fill-opacity="1" fill-rule="nonzero"/><path fill="#ffffff" d="M 126.792969 58.625 L 112.433594 54.46875 L 115.945312 40.070312 C 116.171875 39.140625 115.617188 38.203125 114.691406 37.953125 L 99.066406 33.765625 C 98.617188 33.648438 98.136719 33.707031 97.730469 33.945312 C 97.328125 34.175781 97.03125 34.566406 96.914062 35.015625 L 92.738281 50.632812 C 92.492188 51.558594 93.027344 52.515625 93.945312 52.777344 L 108.226562 56.917969 L 104.695312 71.402344 C 104.464844 72.34375 105.042969 73.296875 105.988281 73.527344 C 106.929688 73.757812 107.882812 73.175781 108.113281 72.234375 L 111.609375 57.894531 L 125.824219 62.011719 C 126.304688 62.148438 126.792969 62.078125 127.195312 61.847656 C 127.574219 61.628906 127.875 61.265625 128.007812 60.808594 C 128.265625 59.875 127.730469 58.898438 126.792969 58.625 Z M 109.050781 53.484375 L 96.570312 49.875 L 99.851562 37.621094 L 112.117188 40.90625 Z M 109.050781 53.484375 " fill-opacity="1" fill-rule="nonzero"/><path fill="#ffffff" d="M 202.722656 21.664062 L 194.699219 29.6875 L 194.699219 22.957031 L 205.210938 12.445312 C 205.898438 11.761719 205.898438 10.644531 205.210938 9.957031 C 204.523438 9.273438 203.410156 9.273438 202.722656 9.957031 L 194.699219 17.984375 L 194.699219 11.246094 C 194.699219 10.273438 193.914062 9.484375 192.9375 9.484375 C 191.964844 9.484375 191.179688 10.273438 191.179688 11.246094 L 191.179688 48.101562 C 191.179688 49.070312 191.964844 49.863281 192.9375 49.863281 C 193.90625 49.863281 194.699219 49.078125 194.699219 48.101562 L 194.699219 34.664062 L 205.210938 24.152344 C 205.898438 23.464844 205.898438 22.351562 205.210938 21.664062 C 204.523438 20.980469 203.410156 20.980469 202.722656 21.664062 Z M 202.722656 21.664062 " fill-opacity="1" fill-rule="nonzero"/><path fill="#ffffff" d="M 303.648438 70.371094 L 308.40625 65.613281 L 308.40625 76.726562 C 308.40625 77.695312 309.191406 78.488281 310.167969 78.480469 C 311.136719 78.480469 311.929688 77.695312 311.929688 76.726562 L 311.929688 61.363281 C 311.929688 60.652344 311.5 60.011719 310.839844 59.742188 C 310.179688 59.46875 309.429688 59.617188 308.921875 60.125 L 284.332031 84.710938 C 283.644531 85.398438 283.644531 86.511719 284.332031 87.199219 C 285.019531 87.886719 286.132812 87.886719 286.820312 87.199219 L 300.125 73.894531 L 300.125 85.007812 C 300.125 85.496094 300.320312 85.933594 300.636719 86.257812 C 300.957031 86.574219 301.398438 86.769531 301.886719 86.769531 C 302.855469 86.769531 303.648438 85.984375 303.648438 85.015625 Z M 303.648438 70.371094 " fill-opacity="1" fill-rule="nonzero"/><path fill="#ffffff" d="M 245.875 33.800781 C 246.019531 33.253906 245.894531 32.664062 245.53125 32.230469 L 232.148438 16.082031 C 231.726562 15.574219 231.058594 15.34375 230.417969 15.488281 C 229.777344 15.625 229.265625 16.113281 229.09375 16.75 L 220.039062 50.554688 C 219.789062 51.492188 220.34375 52.457031 221.277344 52.707031 C 222.214844 52.957031 223.179688 52.402344 223.4375 51.464844 L 231.613281 20.945312 L 242.242188 33.773438 L 236.59375 55.050781 C 236.34375 55.988281 236.90625 56.949219 237.84375 57.199219 C 237.84375 57.199219 237.847656 57.199219 237.847656 57.199219 C 238.785156 57.453125 239.75 56.890625 240 55.953125 Z M 245.875 33.800781 " fill-opacity="1" fill-rule="nonzero"/><path fill="#ffffff" d="M 280.492188 56.316406 L 275.800781 38.808594 L 278.023438 34.960938 C 278.511719 34.117188 278.222656 33.042969 277.382812 32.558594 C 276.539062 32.070312 275.464844 32.363281 274.980469 33.207031 L 256.550781 65.125 C 256.0625 65.96875 256.351562 67.046875 257.199219 67.527344 C 258.042969 68.015625 259.109375 67.726562 259.597656 66.882812 L 261.742188 63.167969 L 279.246094 58.472656 C 280.183594 58.222656 280.742188 57.253906 280.492188 56.316406 Z M 264.226562 58.855469 L 273.3125 43.117188 L 276.636719 55.53125 Z M 264.226562 58.855469 " fill-opacity="1" fill-rule="nonzero"/><path fill="#ffffff" d="M 312.609375 122.292969 L 316.039062 108.335938 L 329.679688 111.554688 C 330.605469 111.773438 331.535156 111.21875 331.785156 110.304688 L 335.976562 94.691406 C 336.160156 94.003906 335.917969 93.269531 335.347656 92.84375 C 334.78125 92.40625 334.015625 92.359375 333.394531 92.714844 L 303.613281 109.914062 C 302.769531 110.402344 302.488281 111.476562 302.96875 112.316406 C 303.457031 113.152344 304.53125 113.445312 305.371094 112.960938 L 312.257812 108.984375 L 309.191406 121.460938 C 308.960938 122.40625 309.535156 123.363281 310.476562 123.59375 C 311.429688 123.816406 312.378906 123.238281 312.609375 122.292969 Z M 331.476562 97.882812 L 328.828125 107.742188 L 318.589844 105.320312 Z M 331.476562 97.882812 " fill-opacity="1" fill-rule="nonzero"/><path fill="#ffffff" d="M 319.839844 154.246094 C 319.722656 153.808594 319.777344 153.328125 320.019531 152.914062 L 333.390625 129.75 C 333.871094 128.90625 334.953125 128.621094 335.792969 129.109375 L 358.472656 142.203125 C 359.316406 142.691406 359.601562 143.765625 359.117188 144.605469 C 358.636719 145.449219 357.554688 145.734375 356.71875 145.25 L 335.554688 133.035156 L 323.0625 154.675781 C 322.582031 155.519531 321.5 155.804688 320.660156 155.320312 C 320.246094 155.070312 319.960938 154.679688 319.839844 154.246094 Z M 319.839844 154.246094 " fill-opacity="1" fill-rule="nonzero"/><path fill="#ffffff" d="M 345.070312 189.695312 L 362.285156 201.574219 C 363.089844 202.121094 364.179688 201.921875 364.734375 201.125 C 365.289062 200.328125 365.085938 199.230469 364.285156 198.675781 L 348.164062 187.558594 L 364.285156 176.445312 C 365.085938 175.898438 365.289062 174.792969 364.734375 173.996094 C 364.179688 173.199219 363.089844 172.992188 362.285156 173.546875 L 345.070312 185.425781 L 327.851562 173.546875 C 327.054688 172.992188 325.960938 173.199219 325.40625 173.996094 C 325.195312 174.300781 325.09375 174.648438 325.09375 174.992188 C 325.09375 175.554688 325.359375 176.101562 325.851562 176.4375 L 341.976562 187.550781 L 325.851562 198.671875 C 325.359375 199.011719 325.09375 199.5625 325.09375 200.117188 C 325.09375 200.457031 325.195312 200.808594 325.40625 201.113281 C 325.960938 201.910156 327.046875 202.113281 327.851562 201.558594 Z M 345.070312 189.695312 " fill-opacity="1" fill-rule="nonzero"/><path fill="#ffffff" d="M 343.367188 242.117188 L 357.371094 234.039062 C 357.984375 233.683594 358.328125 233 358.234375 232.285156 C 358.140625 231.578125 357.632812 231.003906 356.949219 230.8125 L 323.726562 221.910156 C 322.792969 221.660156 321.828125 222.222656 321.578125 223.160156 C 321.328125 224.097656 321.878906 225.058594 322.816406 225.316406 L 332.332031 227.871094 L 341.003906 241.542969 C 341.507812 242.335938 342.550781 242.59375 343.367188 242.117188 Z M 337.347656 229.210938 L 351.933594 233.117188 L 343.070312 238.230469 Z M 337.347656 229.210938 " fill-opacity="1" fill-rule="nonzero"/><path fill="#ffffff" d="M 337.996094 284.21875 C 338.476562 283.382812 338.195312 282.304688 337.347656 281.816406 L 319.566406 271.550781 L 334.457031 264.390625 L 344.335938 270.097656 C 345.175781 270.585938 346.257812 270.296875 346.738281 269.457031 C 347.226562 268.613281 346.9375 267.539062 346.09375 267.054688 L 314.09375 248.578125 C 313.25 248.097656 312.179688 248.378906 311.691406 249.226562 C 311.203125 250.070312 311.492188 251.140625 312.332031 251.628906 L 330.769531 262.269531 L 315.871094 269.429688 L 305.410156 263.394531 C 304.570312 262.910156 303.496094 263.195312 303.007812 264.039062 C 302.519531 264.882812 302.808594 265.960938 303.648438 266.441406 L 335.582031 284.871094 C 336.429688 285.347656 337.507812 285.058594 337.996094 284.21875 Z M 337.996094 284.21875 " fill-opacity="1" fill-rule="nonzero"/><path fill="#ffffff" d="M 291.808594 304.667969 L 302.050781 304.605469 L 311.40625 313.960938 C 312.09375 314.648438 313.210938 314.648438 313.894531 313.960938 C 314.582031 313.273438 314.582031 312.160156 313.894531 311.472656 L 306.992188 304.570312 L 321.109375 304.484375 C 322.078125 304.480469 322.863281 303.6875 322.859375 302.714844 C 322.851562 301.746094 322.058594 300.96875 321.089844 300.96875 L 303.503906 301.074219 L 287.835938 285.414062 C 287.148438 284.726562 286.035156 284.726562 285.347656 285.414062 C 284.664062 286.101562 284.664062 287.214844 285.347656 287.902344 L 298.554688 301.105469 L 291.78125 301.152344 C 291.300781 301.152344 290.871094 301.351562 290.546875 301.667969 C 290.226562 301.992188 290.027344 302.433594 290.035156 302.921875 C 290.046875 303.890625 290.839844 304.675781 291.808594 304.667969 Z M 291.808594 304.667969 " fill-opacity="1" fill-rule="nonzero"/><path fill="#ffffff" d="M 279.609375 340.210938 C 278.761719 340.699219 277.695312 340.410156 277.207031 339.566406 L 258.78125 307.652344 C 258.292969 306.808594 258.582031 305.730469 259.421875 305.25 C 260.265625 304.761719 261.339844 305.050781 261.824219 305.898438 L 280.246094 337.816406 C 280.734375 338.65625 280.453125 339.730469 279.609375 340.210938 Z M 279.609375 340.210938 " fill-opacity="1" fill-rule="nonzero"/><path fill="#ffffff" d="M 248.011719 339.203125 L 231.71875 329.792969 C 230.875 329.3125 229.796875 329.59375 229.316406 330.433594 C 228.828125 331.277344 229.117188 332.351562 229.964844 332.839844 L 244.730469 341.367188 L 236.398438 355.804688 C 235.910156 356.648438 236.199219 357.726562 237.039062 358.207031 C 237.460938 358.453125 237.941406 358.496094 238.371094 358.386719 C 238.804688 358.265625 239.195312 357.984375 239.4375 357.5625 L 248.652344 341.605469 C 249.148438 340.765625 248.855469 339.691406 248.011719 339.203125 Z M 248.011719 339.203125 " fill-opacity="1" fill-rule="nonzero"/><path fill="#ffffff" d="M 237.589844 347.839844 C 238.027344 347.726562 238.417969 347.445312 238.660156 347.023438 C 239.148438 346.175781 238.859375 345.109375 238.019531 344.621094 L 223.253906 336.09375 L 231.585938 321.664062 C 232.066406 320.816406 231.785156 319.742188 230.941406 319.261719 C 230.101562 318.777344 229.027344 319.0625 228.539062 319.90625 L 219.324219 335.863281 C 218.84375 336.707031 219.128906 337.777344 219.972656 338.265625 L 236.265625 347.675781 C 236.679688 347.90625 237.15625 347.953125 237.589844 347.839844 Z M 237.589844 347.839844 " fill-opacity="1" fill-rule="nonzero"/><g clip-path="url(#dde8428f07)"><path fill="#ffffff" d="M 187.1875 374.164062 C 84.046875 374.164062 0.125 290.246094 0.125 187.101562 C 0.125 83.953125 84.046875 0.0390625 187.1875 0.0390625 C 290.332031 0.0390625 374.242188 83.953125 374.242188 187.101562 C 374.242188 290.246094 290.332031 374.164062 187.1875 374.164062 Z M 187.1875 4.308594 C 86.394531 4.308594 4.394531 86.308594 4.394531 187.101562 C 4.394531 287.894531 86.394531 369.902344 187.1875 369.902344 C 287.980469 369.902344 369.980469 287.902344 369.980469 187.101562 C 369.980469 86.308594 287.980469 4.308594 187.1875 4.308594 Z M 187.1875 4.308594 " fill-opacity="1" fill-rule="nonzero"/></g><path fill="#ffffff" d="M 187.1875 321.558594 C 113.046875 321.558594 52.734375 261.242188 52.734375 187.101562 C 52.734375 112.960938 113.046875 52.648438 187.1875 52.648438 C 261.320312 52.648438 321.644531 112.960938 321.644531 187.101562 C 321.636719 261.242188 261.320312 321.558594 187.1875 321.558594 Z M 187.1875 56.917969 C 115.40625 56.917969 57.003906 115.316406 57.003906 187.101562 C 57.003906 258.886719 115.40625 317.292969 187.1875 317.292969 C 258.972656 317.292969 317.375 258.894531 317.375 187.101562 C 317.375 115.316406 258.972656 56.917969 187.1875 56.917969 Z M 187.1875 56.917969 " fill-opacity="1" fill-rule="nonzero"/><g clip-path="url(#15e579686c)"><g clip-path="url(#d6d46594e1)"><path stroke-linecap="butt" transform="matrix(0.75, 0, 0, 0.75, 66.75745, 83.599418)" fill="none" stroke-linejoin="miter" d="M 321.052609 137.950794 L 240.792182 275.903937 L 80.266119 275.903937 L 0.000483712 137.950794 L 80.266119 -0.00234861 L 240.792182 -0.00234861 Z M 321.052609 137.950794 " stroke="#d99e32" stroke-width="10" stroke-opacity="1" stroke-miterlimit="4"/></g></g><g clip-path="url(#c619fafac1)"><g clip-path="url(#422b614591)"><path stroke-linecap="butt" transform="matrix(0, 0.75, -0.75, 0, 290.617721, 66.668806)" fill="none" stroke-linejoin="miter" d="M 321.056217 137.953854 L 240.790582 275.906997 L 80.264519 275.906997 L -0.00111636 137.953854 L 80.264519 0.000710822 L 240.790582 0.000710822 Z M 321.056217 137.953854 " stroke="#d99e32" stroke-width="10" stroke-opacity="1" stroke-miterlimit="4"/></g></g><g clip-path="url(#38597b5ad5)"><path fill="#733b0a" d="M 260.351562 218.757812 C 260.101562 221.007812 258.039062 223.136719 256.539062 224.636719 C 253.285156 227.949219 246.90625 233.265625 242.59375 235.078125 C 229.398438 240.644531 218.390625 236.644531 218.390625 236.644531 C 228.394531 238.707031 238.902344 233.765625 244.84375 225.511719 C 227.144531 230.390625 209.761719 235.769531 191.5 233.453125 C 173.179688 231.140625 133.90625 209.878906 133.90625 209.878906 C 133.90625 209.878906 136.46875 226.699219 150.851562 231.390625 C 157.167969 233.453125 164.421875 233.578125 171.113281 233.328125 C 167.988281 233.453125 164.234375 234.890625 160.984375 235.453125 C 157.292969 236.144531 153.480469 236.644531 149.664062 236.582031 C 142.722656 236.457031 136.59375 234.015625 130.78125 230.390625 C 122.898438 225.449219 116.773438 218.070312 114.707031 208.941406 C 113.707031 204.6875 113.582031 200.121094 114.394531 195.808594 C 114.582031 194.996094 115.332031 190.179688 116.648438 190.179688 C 130.71875 190.117188 161.484375 197.058594 161.484375 197.058594 C 161.484375 197.058594 175.554688 218.507812 205.820312 216.257812 C 187.875 212.441406 172.492188 206.6875 165.234375 194.371094 C 165.296875 186.742188 169.738281 172.167969 173.117188 163.101562 C 175.492188 172.105469 183.621094 177.484375 184.621094 178.109375 C 183.621094 176.984375 174.929688 167.355469 176.242188 155.785156 C 176.804688 154.660156 188.375 134.085938 196.878906 123.457031 C 197.941406 122.078125 199.878906 122.140625 200.882812 123.519531 C 207.949219 133.335938 216.703125 142.214844 225.769531 150.09375 C 221.078125 151.03125 216.078125 150.597656 211.761719 148.46875 C 205.84375 145.554688 200.183594 138.789062 200.183594 138.789062 C 200.183594 138.789062 201.824219 142.851562 205.210938 145.609375 C 202.148438 165.871094 209.886719 195.054688 222.582031 210.441406 C 211.136719 209.816406 185.808594 195.492188 183.058594 194.054688 C 192.625 203.875 205.820312 210.003906 219.265625 212.878906 C 225.207031 214.191406 231.398438 215.128906 237.527344 215.191406 C 242.53125 215.253906 247.59375 214.753906 252.660156 214.753906 C 255.347656 214.753906 260.664062 214.628906 260.351562 218.757812 Z M 260.351562 218.757812 " fill-opacity="1" fill-rule="nonzero"/></g></svg>