<svg xmlns="http://www.w3.org/2000/svg" xmlns:xlink="http://www.w3.org/1999/xlink" width="500" zoomAndPan="magnify" viewBox="0 0 375 374.999991" height="500" preserveAspectRatio="xMidYMid meet" version="1.0"><defs><clipPath id="fb494f32fd"><path d="M 0.105469 0.0195312 L 373.851562 0.0195312 L 373.851562 373.765625 L 0.105469 373.765625 Z M 0.105469 0.0195312 " clip-rule="nonzero"/></clipPath><clipPath id="d2c8c536b0"><path d="M 66.753906 83.597656 L 307.558594 83.597656 L 307.558594 290.539062 L 66.753906 290.539062 Z M 66.753906 83.597656 " clip-rule="nonzero"/></clipPath><clipPath id="67f64e6bdb"><path d="M 307.558594 187.070312 L 247.355469 290.539062 L 126.957031 290.539062 L 66.753906 187.070312 L 126.957031 83.597656 L 247.355469 83.597656 Z M 307.558594 187.070312 " clip-rule="nonzero"/></clipPath><clipPath id="e6ce189431"><path d="M 83.6875 66.667969 L 290.625 66.667969 L 290.625 307.46875 L 83.6875 307.46875 Z M 83.6875 66.667969 " clip-rule="nonzero"/></clipPath><clipPath id="996559862f"><path d="M 187.15625 307.46875 L 83.6875 247.269531 L 83.6875 126.867188 L 187.15625 66.667969 L 290.625 126.867188 L 290.625 247.269531 Z M 187.15625 307.46875 " clip-rule="nonzero"/></clipPath><clipPath id="4e178f4208"><path d="M 113.609375 122.070312 L 260.351562 122.070312 L 260.351562 239 L 113.609375 239 Z M 113.609375 122.070312 " clip-rule="nonzero"/></clipPath></defs><path fill="#000000" d="M 201.371094 338.222656 L 190.519531 327.371094 C 190.019531 326.871094 189.261719 326.71875 188.609375 326.988281 C 187.949219 327.261719 187.519531 327.898438 187.519531 328.613281 L 187.519531 357.097656 L 179.707031 349.292969 C 179.023438 348.609375 177.90625 348.609375 177.222656 349.292969 C 176.535156 349.980469 176.535156 351.09375 177.222656 351.777344 L 188.035156 362.585938 C 188.371094 362.921875 188.820312 363.097656 189.28125 363.097656 C 189.503906 363.097656 189.734375 363.054688 189.953125 362.96875 C 190.613281 362.695312 191.039062 362.058594 191.039062 361.34375 L 191.039062 332.859375 L 198.894531 340.710938 C 199.578125 341.394531 200.691406 341.394531 201.378906 340.710938 C 202.058594 340.023438 202.058594 338.910156 201.371094 338.222656 Z M 201.371094 338.222656 " fill-opacity="1" fill-rule="nonzero"/><path fill="#000000" d="M 160.53125 324.941406 C 159.960938 324.503906 159.199219 324.457031 158.578125 324.816406 L 146.875 331.578125 L 139.5 318.882812 C 139.011719 318.039062 137.9375 317.753906 137.097656 318.242188 C 136.253906 318.730469 135.976562 319.804688 136.460938 320.640625 L 144.71875 334.855469 C 145.207031 335.691406 146.277344 335.976562 147.121094 335.496094 L 156.664062 329.976562 L 150.390625 353.394531 L 144.753906 343.648438 C 144.523438 343.246094 144.140625 342.953125 143.683594 342.832031 C 143.238281 342.714844 142.753906 342.773438 142.351562 343.011719 L 127.96875 351.332031 C 127.128906 351.820312 126.839844 352.894531 127.328125 353.730469 C 127.570312 354.152344 127.960938 354.429688 128.394531 354.546875 C 128.832031 354.667969 129.3125 354.621094 129.734375 354.371094 L 142.589844 346.933594 L 149.464844 358.828125 C 149.824219 359.441406 150.515625 359.78125 151.21875 359.691406 C 151.925781 359.597656 152.507812 359.089844 152.683594 358.40625 L 161.15625 326.792969 C 161.339844 326.101562 161.089844 325.367188 160.53125 324.941406 Z M 160.53125 324.941406 " fill-opacity="1" fill-rule="nonzero"/><path fill="#000000" d="M 88.207031 334.96875 C 88.457031 335.902344 89.417969 336.464844 90.355469 336.214844 L 101.484375 333.234375 L 98.054688 339.171875 C 97.566406 340.015625 97.859375 341.085938 98.703125 341.574219 C 99.546875 342.0625 100.621094 341.769531 101.101562 340.925781 L 104.496094 335.039062 L 107.457031 346.078125 C 107.707031 347.011719 108.671875 347.574219 109.613281 347.324219 C 110.550781 347.070312 111.109375 346.109375 110.851562 345.167969 L 106.984375 330.734375 L 119.507812 309.039062 C 119.996094 308.195312 119.707031 307.125 118.863281 306.636719 C 118.027344 306.15625 116.949219 306.441406 116.464844 307.285156 L 103.96875 328.929688 L 89.445312 332.816406 C 88.515625 333.070312 87.957031 334.03125 88.207031 334.96875 Z M 88.207031 334.96875 " fill-opacity="1" fill-rule="nonzero"/><path fill="#000000" d="M 84.375 307.488281 C 84.632812 306.84375 84.476562 306.105469 83.980469 305.609375 L 70.386719 292.015625 L 91.613281 291.746094 C 92.582031 291.730469 93.363281 290.933594 93.347656 289.964844 C 93.335938 288.996094 92.539062 288.21875 91.570312 288.230469 L 66.171875 288.554688 C 65.46875 288.5625 64.835938 288.996094 64.566406 289.648438 C 64.300781 290.300781 64.453125 291.054688 64.945312 291.554688 L 78.660156 305.265625 L 57.492188 306.175781 C 56.519531 306.222656 55.769531 307.039062 55.808594 308.007812 C 55.828125 308.472656 56.019531 308.875 56.324219 309.175781 C 56.660156 309.511719 57.128906 309.710938 57.640625 309.691406 L 82.800781 308.601562 C 83.511719 308.578125 84.117188 308.140625 84.375 307.488281 Z M 84.375 307.488281 " fill-opacity="1" fill-rule="nonzero"/><path fill="#000000" d="M 35.648438 258.707031 L 31.71875 273.363281 C 31.542969 273.839844 31.5625 274.386719 31.832031 274.867188 C 32.082031 275.300781 32.484375 275.585938 32.9375 275.691406 L 47.738281 279.648438 C 48.675781 279.898438 49.636719 279.34375 49.890625 278.402344 C 50.015625 277.933594 49.941406 277.457031 49.710938 277.070312 C 49.488281 276.679688 49.109375 276.378906 48.644531 276.25 L 37.910156 273.378906 L 65.824219 257.269531 C 66.667969 256.789062 66.949219 255.707031 66.46875 254.871094 C 65.980469 254.027344 64.90625 253.742188 64.070312 254.226562 L 36.175781 270.332031 L 39.050781 259.617188 C 39.300781 258.683594 38.746094 257.714844 37.8125 257.460938 C 36.867188 257.210938 35.90625 257.773438 35.648438 258.707031 Z M 35.648438 258.707031 " fill-opacity="1" fill-rule="nonzero"/><path fill="#000000" d="M 36.222656 219.410156 L 33.550781 223.761719 L 29.367188 221.289062 C 28.535156 220.800781 27.46875 221.070312 26.964844 221.894531 L 18.46875 235.988281 C 18.097656 236.601562 18.136719 237.378906 18.566406 237.953125 C 19 238.527344 19.734375 238.785156 20.425781 238.59375 L 52.15625 230.097656 C 52.84375 229.910156 53.351562 229.332031 53.441406 228.625 C 53.476562 228.394531 53.457031 228.164062 53.394531 227.941406 C 53.277344 227.5 52.988281 227.109375 52.578125 226.871094 L 38.589844 218.796875 C 37.769531 218.335938 36.714844 218.597656 36.222656 219.410156 Z M 23.734375 234.078125 L 29.082031 225.203125 L 31.71875 226.761719 L 27.929688 232.949219 Z M 47.152344 227.800781 L 32.851562 231.636719 L 38.324219 222.710938 Z M 47.152344 227.800781 " fill-opacity="1" fill-rule="nonzero"/><path fill="#000000" d="M 48.433594 197.832031 C 48.433594 196.863281 47.640625 196.078125 46.671875 196.078125 L 15.882812 196.078125 L 23.945312 187.675781 C 24.597656 187 24.597656 185.925781 23.945312 185.246094 L 15.851562 176.8125 L 46.613281 176.8125 C 47.582031 176.8125 48.367188 176.023438 48.367188 175.050781 C 48.367188 174.082031 47.582031 173.296875 46.613281 173.296875 L 11.722656 173.296875 C 11.019531 173.296875 10.386719 173.722656 10.109375 174.367188 C 10.015625 174.585938 9.96875 174.820312 9.96875 175.050781 C 9.96875 175.5 10.140625 175.9375 10.457031 176.273438 L 20.242188 186.457031 L 10.484375 196.617188 C 9.996094 197.125 9.859375 197.875 10.132812 198.523438 C 10.410156 199.167969 11.042969 199.589844 11.75 199.589844 L 46.664062 199.589844 C 47.640625 199.589844 48.433594 198.804688 48.433594 197.832031 Z M 48.433594 197.832031 " fill-opacity="1" fill-rule="nonzero"/><path fill="#000000" d="M 42.480469 128.890625 L 21.691406 123.320312 C 21.011719 123.132812 20.289062 123.378906 19.851562 123.933594 C 19.417969 124.484375 19.359375 125.242188 19.695312 125.863281 L 26.492188 138.25 L 14.460938 145.523438 C 14.378906 145.574219 14.300781 145.628906 14.226562 145.6875 C 14.207031 145.707031 14.1875 145.726562 14.167969 145.746094 C 14.117188 145.800781 14.0625 145.851562 14.015625 145.914062 C 13.992188 145.9375 13.972656 145.972656 13.953125 145.996094 C 13.90625 146.058594 13.867188 146.125 13.832031 146.1875 C 13.820312 146.214844 13.800781 146.234375 13.785156 146.261719 C 13.742188 146.355469 13.707031 146.445312 13.675781 146.546875 C 13.675781 146.550781 13.667969 146.566406 13.660156 146.570312 C 13.65625 146.589844 13.65625 146.609375 13.65625 146.632812 C 13.636719 146.710938 13.621094 146.78125 13.617188 146.863281 C 13.609375 146.894531 13.609375 146.925781 13.609375 146.960938 C 13.609375 147.046875 13.609375 147.136719 13.621094 147.222656 C 13.621094 147.242188 13.621094 147.265625 13.628906 147.277344 C 13.640625 147.375 13.667969 147.46875 13.699219 147.558594 C 13.707031 147.59375 13.722656 147.621094 13.734375 147.644531 C 13.761719 147.71875 13.792969 147.785156 13.828125 147.851562 C 13.839844 147.875 13.851562 147.902344 13.871094 147.929688 C 13.917969 148.003906 13.972656 148.074219 14.023438 148.140625 C 14.03125 148.152344 14.042969 148.167969 14.050781 148.171875 C 14.117188 148.246094 14.1875 148.320312 14.269531 148.378906 C 14.292969 148.398438 14.3125 148.410156 14.339844 148.429688 C 14.398438 148.476562 14.464844 148.515625 14.53125 148.550781 C 14.558594 148.5625 14.589844 148.582031 14.617188 148.59375 C 14.710938 148.640625 14.808594 148.679688 14.914062 148.707031 L 48.644531 157.746094 C 49.578125 157.996094 50.542969 157.441406 50.792969 156.5 C 51.042969 155.5625 50.488281 154.601562 49.550781 154.34375 L 37.585938 151.140625 L 31.199219 139.503906 L 42.683594 132.570312 L 54.476562 135.734375 C 55.414062 135.984375 56.375 135.429688 56.632812 134.492188 C 56.882812 133.558594 56.332031 132.59375 55.386719 132.34375 L 43.386719 129.128906 C 43.113281 128.96875 42.796875 128.882812 42.480469 128.890625 Z M 32.886719 149.902344 L 19.8125 146.398438 L 28.191406 141.34375 Z M 29.503906 136.433594 L 24.757812 127.777344 L 37.96875 131.316406 Z M 29.503906 136.433594 " fill-opacity="1" fill-rule="nonzero"/><path fill="#000000" d="M 67.523438 113.4375 C 67.035156 114.28125 65.960938 114.5625 65.125 114.082031 L 35.074219 96.730469 C 34.457031 96.375 34.117188 95.683594 34.210938 94.976562 C 34.304688 94.269531 34.8125 93.691406 35.503906 93.507812 L 50.332031 89.539062 C 51.265625 89.285156 52.230469 89.839844 52.480469 90.785156 C 52.730469 91.71875 52.175781 92.683594 51.242188 92.933594 L 40.515625 95.808594 L 66.886719 111.035156 C 67.722656 111.523438 68.011719 112.597656 67.523438 113.4375 Z M 67.523438 113.4375 " fill-opacity="1" fill-rule="nonzero"/><path fill="#000000" d="M 83.109375 80.292969 L 83.109375 68.96875 C 83.109375 68 82.324219 67.207031 81.351562 67.207031 L 69.476562 67.207031 L 69.476562 55.886719 C 69.476562 54.917969 68.683594 54.128906 67.714844 54.132812 C 66.746094 54.132812 65.960938 54.917969 65.960938 55.886719 L 65.960938 67.214844 L 54.636719 67.214844 C 53.667969 67.214844 52.875 68 52.875 68.96875 C 52.875 69.9375 53.667969 70.722656 54.636719 70.722656 L 65.960938 70.722656 L 65.960938 82.046875 C 65.960938 83.015625 66.753906 83.808594 67.714844 83.800781 L 79.597656 83.800781 L 79.597656 95.128906 C 79.597656 96.097656 80.378906 96.886719 81.351562 96.886719 C 81.835938 96.886719 82.273438 96.691406 82.597656 96.375 C 82.914062 96.058594 83.109375 95.617188 83.109375 95.132812 L 83.109375 83.808594 L 94.4375 83.808594 C 94.917969 83.808594 95.359375 83.609375 95.675781 83.292969 C 95.992188 82.976562 96.191406 82.535156 96.191406 82.046875 C 96.191406 81.078125 95.40625 80.292969 94.429688 80.292969 Z M 69.476562 80.292969 L 69.476562 70.722656 L 79.597656 70.722656 L 79.597656 80.292969 Z M 69.476562 80.292969 " fill-opacity="1" fill-rule="nonzero"/><path fill="#000000" d="M 171.144531 17.953125 C 170.542969 17.78125 169.902344 17.945312 169.457031 18.375 L 152.742188 34.394531 L 130.253906 28.875 C 129.65625 28.730469 129.015625 28.910156 128.582031 29.351562 C 128.144531 29.792969 127.980469 30.433594 128.140625 31.039062 L 134.152344 53.480469 C 134.308594 54.082031 134.777344 54.550781 135.371094 54.71875 C 135.972656 54.886719 136.609375 54.726562 137.058594 54.296875 L 153.773438 38.277344 L 176.257812 43.796875 C 176.550781 43.867188 176.851562 43.863281 177.136719 43.785156 C 177.433594 43.703125 177.714844 43.546875 177.933594 43.316406 C 178.371094 42.875 178.535156 42.234375 178.375 41.632812 L 172.363281 19.191406 C 172.207031 18.585938 171.738281 18.117188 171.144531 17.953125 Z M 136.769531 49.703125 L 132.292969 33.003906 L 149.730469 37.28125 Z M 174.214844 39.667969 L 156.785156 35.390625 L 169.746094 22.96875 Z M 174.214844 39.667969 " fill-opacity="1" fill-rule="nonzero"/><path fill="#000000" d="M 126.675781 58.570312 L 112.328125 54.417969 L 115.835938 40.03125 C 116.0625 39.101562 115.507812 38.167969 114.585938 37.914062 L 98.972656 33.734375 C 98.523438 33.617188 98.042969 33.675781 97.640625 33.914062 C 97.238281 34.144531 96.941406 34.535156 96.824219 34.980469 L 92.648438 50.585938 C 92.40625 51.511719 92.941406 52.464844 93.855469 52.730469 L 108.125 56.863281 L 104.597656 71.335938 C 104.367188 72.277344 104.945312 73.226562 105.886719 73.457031 C 106.832031 73.6875 107.78125 73.109375 108.011719 72.164062 L 111.503906 57.839844 L 125.707031 61.953125 C 126.1875 62.089844 126.675781 62.019531 127.078125 61.789062 C 127.453125 61.570312 127.757812 61.207031 127.886719 60.753906 C 128.144531 59.816406 127.613281 58.839844 126.675781 58.570312 Z M 108.945312 53.433594 L 96.480469 49.828125 L 99.757812 37.585938 L 112.011719 40.871094 Z M 108.945312 53.433594 " fill-opacity="1" fill-rule="nonzero"/><path fill="#000000" d="M 202.53125 21.644531 L 194.515625 29.660156 L 194.515625 22.9375 L 205.015625 12.433594 C 205.703125 11.75 205.703125 10.632812 205.015625 9.949219 C 204.332031 9.261719 203.21875 9.261719 202.53125 9.949219 L 194.515625 17.964844 L 194.515625 11.234375 C 194.515625 10.265625 193.730469 9.472656 192.753906 9.472656 C 191.785156 9.472656 191 10.265625 191 11.234375 L 191 48.054688 C 191 49.023438 191.785156 49.816406 192.753906 49.816406 C 193.722656 49.816406 194.515625 49.03125 194.515625 48.054688 L 194.515625 34.632812 L 205.015625 24.128906 C 205.703125 23.445312 205.703125 22.332031 205.015625 21.644531 C 204.332031 20.957031 203.21875 20.957031 202.53125 21.644531 Z M 202.53125 21.644531 " fill-opacity="1" fill-rule="nonzero"/><path fill="#000000" d="M 303.363281 70.304688 L 308.117188 65.550781 L 308.117188 76.65625 C 308.117188 77.625 308.898438 78.414062 309.875 78.410156 C 310.84375 78.410156 311.636719 77.625 311.636719 76.65625 L 311.636719 61.308594 C 311.636719 60.59375 311.207031 59.957031 310.546875 59.683594 C 309.890625 59.414062 309.136719 59.558594 308.628906 60.066406 L 284.066406 84.632812 C 283.378906 85.316406 283.378906 86.433594 284.066406 87.117188 C 284.75 87.804688 285.863281 87.804688 286.550781 87.117188 L 299.839844 73.828125 L 299.839844 84.929688 C 299.839844 85.417969 300.039062 85.851562 300.355469 86.175781 C 300.671875 86.492188 301.113281 86.6875 301.601562 86.6875 C 302.570312 86.6875 303.363281 85.90625 303.363281 84.933594 Z M 303.363281 70.304688 " fill-opacity="1" fill-rule="nonzero"/><path fill="#000000" d="M 245.640625 33.769531 C 245.789062 33.222656 245.664062 32.636719 245.300781 32.199219 L 231.929688 16.066406 C 231.507812 15.558594 230.839844 15.328125 230.203125 15.472656 C 229.5625 15.613281 229.046875 16.101562 228.875 16.734375 L 219.832031 50.507812 C 219.582031 51.445312 220.136719 52.40625 221.070312 52.65625 C 222.007812 52.90625 222.96875 52.355469 223.226562 51.417969 L 231.394531 20.925781 L 242.015625 33.742188 L 236.371094 54.996094 C 236.121094 55.933594 236.683594 56.894531 237.617188 57.148438 C 237.617188 57.148438 237.625 57.148438 237.625 57.148438 C 238.5625 57.398438 239.523438 56.835938 239.773438 55.902344 Z M 245.640625 33.769531 " fill-opacity="1" fill-rule="nonzero"/><path fill="#000000" d="M 280.226562 56.261719 L 275.539062 38.773438 L 277.761719 34.929688 C 278.25 34.085938 277.960938 33.011719 277.121094 32.53125 C 276.277344 32.042969 275.203125 32.332031 274.722656 33.175781 L 256.308594 65.066406 C 255.820312 65.910156 256.113281 66.984375 256.957031 67.464844 C 257.800781 67.953125 258.867188 67.664062 259.355469 66.820312 L 261.5 63.105469 L 278.980469 58.417969 C 279.917969 58.167969 280.480469 57.199219 280.226562 56.261719 Z M 263.976562 58.800781 L 273.054688 43.078125 L 276.378906 55.480469 Z M 263.976562 58.800781 " fill-opacity="1" fill-rule="nonzero"/><path fill="#000000" d="M 312.316406 122.179688 L 315.742188 108.234375 L 329.371094 111.453125 C 330.292969 111.667969 331.222656 111.117188 331.472656 110.199219 L 335.660156 94.601562 C 335.84375 93.914062 335.601562 93.183594 335.035156 92.753906 C 334.46875 92.320312 333.703125 92.273438 333.082031 92.628906 L 303.328125 109.808594 C 302.484375 110.296875 302.203125 111.371094 302.683594 112.210938 C 303.171875 113.046875 304.246094 113.335938 305.082031 112.855469 L 311.964844 108.878906 L 308.898438 121.347656 C 308.667969 122.289062 309.242188 123.246094 310.1875 123.476562 C 311.136719 123.699219 312.085938 123.121094 312.316406 122.179688 Z M 331.164062 97.792969 L 328.519531 107.640625 L 318.289062 105.222656 Z M 331.164062 97.792969 " fill-opacity="1" fill-rule="nonzero"/><path fill="#000000" d="M 319.542969 154.101562 C 319.421875 153.664062 319.476562 153.183594 319.71875 152.769531 L 333.074219 129.628906 C 333.558594 128.785156 334.636719 128.5 335.476562 128.988281 L 358.136719 142.070312 C 358.980469 142.554688 359.261719 143.632812 358.78125 144.46875 C 358.300781 145.3125 357.21875 145.597656 356.382812 145.113281 L 335.238281 132.910156 L 322.757812 154.527344 C 322.277344 155.371094 321.195312 155.65625 320.359375 155.175781 C 319.941406 154.925781 319.660156 154.535156 319.542969 154.101562 Z M 319.542969 154.101562 " fill-opacity="1" fill-rule="nonzero"/><path fill="#000000" d="M 344.746094 189.515625 L 361.945312 201.382812 C 362.75 201.929688 363.839844 201.734375 364.390625 200.9375 C 364.945312 200.136719 364.742188 199.042969 363.945312 198.488281 L 347.835938 187.382812 L 363.945312 176.277344 C 364.742188 175.730469 364.945312 174.628906 364.390625 173.832031 C 363.839844 173.035156 362.75 172.832031 361.945312 173.382812 L 344.746094 185.25 L 327.542969 173.382812 C 326.746094 172.832031 325.652344 173.035156 325.097656 173.832031 C 324.886719 174.136719 324.789062 174.484375 324.789062 174.828125 C 324.789062 175.390625 325.050781 175.9375 325.546875 176.273438 L 341.652344 187.375 L 325.546875 198.484375 C 325.050781 198.824219 324.789062 199.375 324.789062 199.925781 C 324.789062 200.269531 324.886719 200.621094 325.097656 200.921875 C 325.652344 201.71875 326.742188 201.925781 327.542969 201.371094 Z M 344.746094 189.515625 " fill-opacity="1" fill-rule="nonzero"/><path fill="#000000" d="M 343.042969 241.890625 L 357.035156 233.820312 C 357.648438 233.464844 357.988281 232.777344 357.898438 232.066406 C 357.804688 231.363281 357.296875 230.789062 356.613281 230.597656 L 323.425781 221.703125 C 322.488281 221.453125 321.527344 222.011719 321.273438 222.949219 C 321.023438 223.886719 321.578125 224.847656 322.515625 225.105469 L 332.019531 227.65625 L 340.683594 241.316406 C 341.183594 242.109375 342.226562 242.363281 343.042969 241.890625 Z M 337.03125 228.996094 L 351.601562 232.898438 L 342.746094 238.007812 Z M 337.03125 228.996094 " fill-opacity="1" fill-rule="nonzero"/><path fill="#000000" d="M 337.679688 283.953125 C 338.160156 283.113281 337.875 282.039062 337.03125 281.550781 L 319.265625 271.292969 L 334.144531 264.140625 L 344.011719 269.84375 C 344.851562 270.332031 345.933594 270.042969 346.414062 269.203125 C 346.902344 268.359375 346.609375 267.285156 345.765625 266.804688 L 313.796875 248.34375 C 312.953125 247.863281 311.886719 248.148438 311.398438 248.992188 C 310.910156 249.835938 311.203125 250.902344 312.039062 251.390625 L 330.457031 262.023438 L 315.570312 269.179688 L 305.121094 263.144531 C 304.285156 262.664062 303.210938 262.949219 302.722656 263.792969 C 302.234375 264.636719 302.523438 265.710938 303.363281 266.191406 L 335.265625 284.605469 C 336.117188 285.078125 337.191406 284.789062 337.679688 283.953125 Z M 337.679688 283.953125 " fill-opacity="1" fill-rule="nonzero"/><path fill="#000000" d="M 291.535156 304.382812 L 301.765625 304.316406 L 311.117188 313.667969 C 311.800781 314.351562 312.914062 314.351562 313.601562 313.667969 C 314.285156 312.980469 314.285156 311.867188 313.601562 311.179688 L 306.703125 304.285156 L 320.808594 304.199219 C 321.777344 304.191406 322.558594 303.402344 322.554688 302.433594 C 322.546875 301.460938 321.757812 300.683594 320.785156 300.683594 L 303.21875 300.789062 L 287.566406 285.144531 C 286.878906 284.460938 285.765625 284.460938 285.082031 285.144531 C 284.394531 285.832031 284.394531 286.945312 285.082031 287.632812 L 298.273438 300.824219 L 291.507812 300.871094 C 291.027344 300.871094 290.597656 301.066406 290.277344 301.382812 C 289.953125 301.707031 289.753906 302.148438 289.761719 302.636719 C 289.773438 303.605469 290.566406 304.390625 291.535156 304.382812 Z M 291.535156 304.382812 " fill-opacity="1" fill-rule="nonzero"/><path fill="#000000" d="M 279.34375 339.890625 C 278.5 340.378906 277.433594 340.089844 276.945312 339.246094 L 258.539062 307.363281 C 258.050781 306.519531 258.339844 305.445312 259.175781 304.964844 C 260.019531 304.476562 261.097656 304.765625 261.578125 305.609375 L 279.984375 337.5 C 280.472656 338.335938 280.1875 339.410156 279.34375 339.890625 Z M 279.34375 339.890625 " fill-opacity="1" fill-rule="nonzero"/><path fill="#000000" d="M 247.777344 338.882812 L 231.5 329.480469 C 230.65625 329 229.582031 329.285156 229.101562 330.121094 C 228.613281 330.964844 228.902344 332.039062 229.746094 332.527344 L 244.5 341.046875 L 236.175781 355.472656 C 235.6875 356.316406 235.976562 357.390625 236.816406 357.871094 C 237.238281 358.113281 237.71875 358.160156 238.144531 358.046875 C 238.582031 357.929688 238.96875 357.648438 239.214844 357.226562 L 248.417969 341.285156 C 248.914062 340.445312 248.621094 339.371094 247.777344 338.882812 Z M 247.777344 338.882812 " fill-opacity="1" fill-rule="nonzero"/><path fill="#000000" d="M 237.367188 347.511719 C 237.804688 347.402344 238.191406 347.117188 238.4375 346.695312 C 238.925781 345.851562 238.632812 344.785156 237.796875 344.296875 L 223.042969 335.777344 L 231.367188 321.359375 C 231.851562 320.515625 231.566406 319.441406 230.722656 318.960938 C 229.886719 318.480469 228.8125 318.761719 228.324219 319.605469 L 219.121094 335.546875 C 218.636719 336.390625 218.921875 337.460938 219.765625 337.949219 L 236.042969 347.347656 C 236.457031 347.578125 236.933594 347.625 237.367188 347.511719 Z M 237.367188 347.511719 " fill-opacity="1" fill-rule="nonzero"/><g clip-path="url(#fb494f32fd)"><path fill="#000000" d="M 187.011719 373.8125 C 83.96875 373.8125 0.125 289.972656 0.125 186.925781 C 0.125 83.875 83.96875 0.0390625 187.011719 0.0390625 C 290.058594 0.0390625 373.890625 83.875 373.890625 186.925781 C 373.890625 289.972656 290.058594 373.8125 187.011719 373.8125 Z M 187.011719 4.304688 C 86.3125 4.304688 4.390625 86.226562 4.390625 186.925781 C 4.390625 287.625 86.3125 369.554688 187.011719 369.554688 C 287.710938 369.554688 369.632812 287.632812 369.632812 186.925781 C 369.632812 86.226562 287.710938 4.304688 187.011719 4.304688 Z M 187.011719 4.304688 " fill-opacity="1" fill-rule="nonzero"/></g><path fill="#000000" d="M 187.011719 321.253906 C 112.941406 321.253906 52.683594 260.996094 52.683594 186.925781 C 52.683594 112.855469 112.941406 52.597656 187.011719 52.597656 C 261.074219 52.597656 321.339844 112.855469 321.339844 186.925781 C 321.335938 260.996094 261.074219 321.253906 187.011719 321.253906 Z M 187.011719 56.863281 C 115.296875 56.863281 56.949219 115.210938 56.949219 186.925781 C 56.949219 258.640625 115.296875 316.996094 187.011719 316.996094 C 258.730469 316.996094 317.074219 258.648438 317.074219 186.925781 C 317.074219 115.210938 258.730469 56.863281 187.011719 56.863281 Z M 187.011719 56.863281 " fill-opacity="1" fill-rule="nonzero"/><g clip-path="url(#d2c8c536b0)"><g clip-path="url(#67f64e6bdb)"><path stroke-linecap="butt" transform="matrix(1.254181, 0, 0, 1.254181, 66.754469, 83.599411)" fill="none" stroke-linejoin="miter" d="M 192.001157 82.5008 L 143.999199 164.999884 L 48.00151 164.999884 L -0.000448633 82.5008 L 48.00151 -0.00139873 L 143.999199 -0.00139873 Z M 192.001157 82.5008 " stroke="#d99e32" stroke-width="5.98" stroke-opacity="1" stroke-miterlimit="4"/></g></g><g clip-path="url(#e6ce189431)"><g clip-path="url(#996559862f)"><path stroke-linecap="butt" transform="matrix(0, 1.254181, -1.254181, 0, 290.625689, 66.667978)" fill="none" stroke-linejoin="miter" d="M 191.998484 82.499633 L 143.99964 164.998717 L 47.998837 164.998717 L -0.00000739298 82.499633 L 47.998837 0.000549056 L 143.99964 0.000549056 Z M 191.998484 82.499633 " stroke="#d99e32" stroke-width="5.98" stroke-opacity="1" stroke-miterlimit="4"/></g></g><g clip-path="url(#4e178f4208)"><path fill="#733b0a" d="M 260.34375 218.753906 C 260.09375 221.003906 258.027344 223.132812 256.527344 224.632812 C 253.277344 227.945312 246.898438 233.261719 242.582031 235.074219 C 229.390625 240.640625 218.382812 236.636719 218.382812 236.636719 C 228.390625 238.703125 238.894531 233.761719 244.835938 225.507812 C 227.136719 230.386719 209.753906 235.761719 191.496094 233.449219 C 173.175781 231.136719 133.90625 209.875 133.90625 209.875 C 133.90625 209.875 136.46875 226.695312 150.851562 231.386719 C 157.167969 233.449219 164.417969 233.574219 171.109375 233.324219 C 167.984375 233.449219 164.230469 234.886719 160.980469 235.449219 C 157.292969 236.136719 153.476562 236.636719 149.664062 236.574219 C 142.722656 236.449219 136.59375 234.011719 130.777344 230.386719 C 122.898438 225.445312 116.773438 218.066406 114.707031 208.9375 C 113.707031 204.683594 113.582031 200.121094 114.394531 195.804688 C 114.582031 194.992188 115.332031 190.175781 116.644531 190.175781 C 130.714844 190.113281 161.480469 197.054688 161.480469 197.054688 C 161.480469 197.054688 175.550781 218.503906 205.816406 216.253906 C 187.867188 212.4375 172.488281 206.6875 165.234375 194.367188 C 165.296875 186.738281 169.734375 172.167969 173.113281 163.101562 C 175.488281 172.105469 183.617188 177.484375 184.617188 178.109375 C 183.617188 176.984375 174.925781 167.355469 176.238281 155.785156 C 176.800781 154.660156 188.371094 134.085938 196.875 123.457031 C 197.9375 122.082031 199.875 122.144531 200.875 123.519531 C 207.941406 133.335938 216.695312 142.214844 225.761719 150.09375 C 221.074219 151.035156 216.074219 150.597656 211.753906 148.46875 C 205.835938 145.554688 200.175781 138.792969 200.175781 138.792969 C 200.175781 138.792969 201.816406 142.855469 205.207031 145.609375 C 202.140625 165.871094 209.878906 195.054688 222.574219 210.4375 C 211.128906 209.8125 185.804688 195.492188 183.054688 194.054688 C 192.621094 203.871094 205.816406 210 219.257812 212.875 C 225.199219 214.1875 231.390625 215.125 237.519531 215.1875 C 242.519531 215.25 247.585938 214.75 252.652344 214.75 C 255.339844 214.75 260.65625 214.625 260.34375 218.753906 Z M 260.34375 218.753906 " fill-opacity="1" fill-rule="nonzero"/></g></svg>